HIERARCHY
ROOT pelvis
{
	OFFSET 0.000000 0.000000 0.000000
	CHANNELS 6 Xposition Yposition Zposition Zrotation Xrotation Yrotation
	JOINT lfemur
	{
		OFFSET 11.446000 0.000000 0.000000
		CHANNELS 3 Zrotation Xrotation Yrotation
		JOINT ltibia
		{
			OFFSET 0.000000 -42.030400 0.000000
			CHANNELS 3 Zrotation Xrotation Yrotation
			JOINT lfoot
			{
				OFFSET 0.000000 -39.930200 0.000000
				CHANNELS 3 Zrotation Xrotation Yrotation
				JOINT ltoes
				{
					OFFSET 0.000000 0.000000 11.775800
					CHANNELS 3 Zrotation Xrotation Yrotation
					End Site
					{
					    OFFSET 0.000000 0.000000 5.000000
					}
				}
			}
		}
	}
	JOINT rfemur
	{
		OFFSET -11.446000 0.000000 0.000000
		CHANNELS 3 Zrotation Xrotation Yrotation
		JOINT rtibia
		{
			OFFSET 0.000000 -42.030400 0.000000
			CHANNELS 3 Zrotation Xrotation Yrotation
			JOINT rfoot
			{
				OFFSET 0.000000 -39.930200 0.000000
				CHANNELS 3 Zrotation Xrotation Yrotation
				JOINT rtoes
				{
					OFFSET 0.000000 0.000000 11.775800
					CHANNELS 3 Zrotation Xrotation Yrotation
					End Site
					{
					    OFFSET 0.000000 0.000000 5.000000
					}
				}
			}
		}
	}
	JOINT thorax
	{
		OFFSET 0.000000 11.255600 -5.000000
		CHANNELS 3 Zrotation Xrotation Yrotation
		JOINT head
		{
			OFFSET 0.000000 43.799300 0.000000
			CHANNELS 3 Zrotation Xrotation Yrotation
			End Site
			{
			    OFFSET 0.000000 5.000000 0.000000
			}
		}
		JOINT lclavicle
		{
			OFFSET 0.000000 39.863000 0.000000
			CHANNELS 3 Zrotation Xrotation Yrotation
			JOINT lhumerus
			{
				OFFSET 17.380600 4.958300 0.000000
				CHANNELS 3 Zrotation Xrotation Yrotation
				JOINT lradius
				{
					OFFSET 0.000000 -27.561300 0.000000
					CHANNELS 3 Zrotation Xrotation Yrotation
					JOINT lhand
					{
						OFFSET 0.000000 -26.933000 0.000000
						CHANNELS 3 Zrotation Xrotation Yrotation
						End Site
						{
						    OFFSET 0.000000 -5.000000 0.000000
						}
					}
				}
			}
		}
		JOINT rclavicle
		{
			OFFSET 0.000000 39.863000 0.000000
			CHANNELS 3 Zrotation Xrotation Yrotation
			JOINT rhumerus
			{
				OFFSET -17.380600 4.958300 0.000000
				CHANNELS 3 Zrotation Xrotation Yrotation
				JOINT rradius
				{
					OFFSET 0.000000 -27.561300 0.000000
					CHANNELS 3 Zrotation Xrotation Yrotation
					JOINT rhand
					{
						OFFSET 0.000000 -26.933000 0.000000
						CHANNELS 3 Zrotation Xrotation Yrotation
						End Site
						{
						    OFFSET 0.000000 -5.000000 0.000000
						}
					}
				}
			}
		}
	}
}
MOTION
Frames: 6
Frame Time:	0.0333333
58.485800 120.431600 -1.148900 -5.131926 12.394779 -21.581457 -33.913489 -54.731888 1.512748 180.000037 75.733442 180.000037 -0.000000 28.725149 -14.437194 0.000000 -1.822081 -0.000000 -74.714336 -29.847723 -43.473372 0.000000 43.574171 0.000000 0.000000 -1.459394 -13.283910 -0.000000 -29.478802 -0.000000 14.871265 18.181698 20.069851 39.441024 3.261259 -2.493696 16.478984 -0.000000 8.442304 61.632630 45.885592 81.815878 -0.000000 -20.684917 -24.366846 5.748108 -3.798715 0.000000 13.713552 -0.000000 6.618004 -106.586808 -36.959152 -11.250248 -0.000000 -4.971688 48.517155 6.627845 -5.586875 -0.000000 
55.157700 121.883900 -1.007000 -7.547912 11.383220 -11.505246 -45.654924 -56.179594 -2.836523 -180.000037 73.956062 -180.000037 0.000000 26.563386 -14.104605 -0.000000 -1.794904 -0.000000 -64.957721 -17.899890 -28.887775 0.000000 34.110952 0.000000 0.000000 -0.348372 -12.458198 -0.000000 -29.481377 -0.000000 16.827769 17.519388 20.046663 39.877222 0.623742 -4.601831 18.702445 -0.000000 6.892767 60.654150 46.241374 96.036965 -0.000000 -18.594391 -30.706061 5.749193 -3.798239 0.000000 15.559290 0.000000 9.706681 -94.753846 -25.178648 -15.590536 -0.000000 -8.968993 54.920819 7.815507 -5.994684 0.000000 
51.355800 122.721600 -0.574300 -8.117217 11.006092 -1.489787 -55.292010 -54.164948 -12.251622 180.000037 79.654292 180.000037 -0.000000 22.833507 -10.817464 -0.000000 -1.702501 0.000000 -57.354108 -4.007111 -18.085274 0.000000 19.477407 -0.000000 -0.000000 4.646342 -15.662773 -0.000000 -29.489969 -0.000000 16.115816 16.087448 20.713239 37.622300 2.045618 1.563121 16.060108 -0.000000 9.346613 58.471746 39.781652 81.037353 -0.000001 -19.251151 -49.574549 5.744618 -3.800245 0.000000 16.920091 0.000000 12.472186 -82.133736 -9.171935 -22.523347 -0.000000 -14.837680 60.989588 9.320319 -6.523285 0.000000 
46.416000 122.846300 -0.123500 -10.900520 11.169603 9.483277 -52.345212 -50.529692 -16.967166 0.000000 89.226092 0.000000 -0.000000 20.850325 -3.257553 -0.000000 -1.620952 0.000000 -48.382774 4.157601 -17.692144 -0.000000 20.512761 -0.000000 0.000000 7.318460 -12.974070 -0.000000 -29.497636 0.000000 16.582757 14.773514 20.805714 34.019821 1.878410 3.605916 12.624485 0.000000 10.010197 59.476482 33.029837 79.780377 0.000001 -23.366201 -45.580880 5.744077 -3.800479 0.000000 21.723934 0.000000 13.228159 -76.671364 3.325064 -16.975526 0.000001 -18.576514 52.748317 5.258715 -5.164190 0.000000 
40.620000 122.122100 1.396900 -15.979509 8.643125 22.700165 -37.118557 -42.726191 -12.538984 -0.000000 70.504287 -0.000000 -0.000000 24.577062 -0.206412 -0.000000 -1.540743 0.000000 -33.729457 13.714633 -19.525675 -0.000000 22.803445 -0.000000 0.000000 8.630995 -11.365847 -0.000000 -29.504893 -0.000000 18.975415 14.208484 17.958881 31.403947 0.227102 0.581802 9.591067 -0.000000 9.999582 63.015014 27.350759 83.936520 -0.000001 -23.576173 -55.574223 5.744667 -3.800222 -0.000000 26.506146 0.000000 12.098302 -70.922811 11.819546 -13.340014 -0.000001 -24.134881 44.666621 2.064507 -4.096276 0.000000 
34.748600 119.742500 4.075400 -19.561832 4.469254 35.490223 -20.523109 -32.155696 -2.567733 -0.000000 46.563069 -0.000000 -0.000000 32.082464 -1.500896 -0.000000 -1.536928 -0.000000 -18.869310 20.967520 -26.651238 -0.000000 26.639535 -0.000000 -0.000000 9.288643 -12.969836 0.000000 -29.521078 -0.000000 19.559178 12.695958 15.398776 28.651400 6.416056 6.910998 9.785802 -0.000000 7.791809 66.540675 26.780066 87.766193 -0.000000 -36.060326 0.402556 5.749240 -3.798225 0.000000 29.485816 -0.000000 7.928323 -62.148174 16.885120 -11.245277 -0.000000 -30.350156 39.075911 -0.597976 -3.201012 -0.000000 
